<?xml version="1.0" standalone="no"?>
<!DOCTYPE svg PUBLIC "-//W3C//DTD SVG 20010904//EN"
 "http://www.w3.org/TR/2001/REC-SVG-20010904/DTD/svg10.dtd">
<svg version="1.0" xmlns="http://www.w3.org/2000/svg"
 viewBox="0 0 2600.000000 2600.000000"
 preserveAspectRatio="xMidYMid meet">
<metadata>
Created by potrace 1.15, written by Peter Selinger 2001-2017
</metadata>
<g transform="translate(0.000000,2600.000000) scale(0.100000,-0.100000)"
fill="#00FF00" stroke="none">
<path d="M7030 24284 c-651 -56 -1239 -332 -1612 -758 -502 -573 -626 -1356
-346 -2191 144 -430 424 -938 775 -1405 334 -445 746 -862 1077 -1091 55 -38
144 -101 196 -139 152 -111 439 -249 602 -290 l46 -12 74 55 c40 30 114 78
163 106 50 28 90 55 90 59 0 4 -42 90 -94 191 -113 224 -185 385 -306 686
-304 754 -348 1121 -147 1224 32 17 101 16 143 -2 143 -60 295 -338 432 -792
105 -346 212 -794 258 -1078 22 -132 24 -138 45 -133 58 15 170 26 267 26
l107 0 45 61 c103 140 210 343 273 519 221 614 302 1145 289 1900 -9 518 -55
890 -162 1295 -254 970 -884 1605 -1730 1746 -115 19 -385 32 -485 23z"/>
<path d="M12645 22499 c-423 -43 -839 -213 -1222 -501 -576 -432 -1165 -1165
-1553 -1933 -118 -234 -192 -415 -274 -675 -91 -291 -123 -459 -133 -700 l-6
-155 74 -50 c41 -27 111 -86 157 -129 l82 -79 198 194 c307 302 723 651 983
824 224 150 438 237 541 221 95 -15 149 -74 156 -168 4 -53 1 -67 -33 -136
-32 -65 -58 -97 -169 -208 -77 -77 -186 -172 -266 -231 -312 -232 -833 -556
-1131 -704 l-86 -42 47 -101 c27 -56 60 -140 75 -189 l27 -87 97 -30 c342
-106 734 -124 1261 -59 962 119 2008 526 2637 1027 855 681 1110 1682 664
2607 -119 246 -258 448 -445 642 -337 351 -732 567 -1173 642 -143 24 -380 34
-508 20z"/>
<path d="M3450 19414 c-14 -2 -65 -9 -115 -15 -262 -32 -516 -108 -745 -223
-599 -300 -984 -846 -1097 -1556 -25 -163 -25 -565 1 -735 110 -721 499 -1264
1121 -1566 525 -255 1143 -299 1935 -139 776 157 1634 512 2109 873 75 57 177
131 228 165 55 37 137 107 206 177 137 136 280 320 273 350 -2 11 -16 53 -30
94 -14 40 -35 119 -47 174 -11 56 -22 103 -24 106 -2 2 -75 -8 -162 -22 -398
-66 -1043 -115 -1363 -104 -370 13 -575 78 -631 201 -45 99 -1 197 113 257 52
27 188 64 293 80 116 18 724 18 955 1 322 -25 715 -69 780 -87 12 -4 19 15 32
94 10 54 31 142 48 195 30 94 31 98 14 124 -106 165 -340 395 -531 523 -43 29
-112 78 -153 109 -104 78 -255 168 -455 271 -672 346 -1471 585 -2165 648
-106 10 -532 13 -590 5z"/>
<path d="M10730 17092 c-254 -19 -620 -107 -620 -149 0 -29 -61 -198 -100
-274 -27 -53 -36 -80 -28 -85 6 -4 54 -28 107 -54 357 -175 981 -562 1231
-763 130 -104 286 -266 323 -334 69 -129 42 -255 -64 -297 -197 -79 -560 120
-1213 665 -181 151 -334 288 -476 426 l-106 102 -64 -66 c-36 -36 -104 -95
-152 -131 l-88 -65 0 -67 c0 -228 48 -475 155 -795 91 -274 176 -473 292 -689
505 -939 1252 -1751 1936 -2106 l86 -45 33 40 c198 241 429 441 681 589 574
338 1245 411 1898 206 70 -22 95 -26 102 -17 4 7 30 49 58 95 408 682 423
1461 40 2105 -322 539 -877 960 -1696 1287 -528 211 -1095 351 -1655 411 -94
9 -590 18 -680 11z"/>
<path d="M7665 16140 c-219 -78 -404 -182 -650 -363 -205 -150 -320 -251 -520
-451 -321 -322 -590 -659 -837 -1051 -478 -755 -697 -1450 -649 -2050 36 -442
190 -825 463 -1150 581 -692 1667 -983 2503 -670 542 203 976 650 1218 1255
113 282 188 592 236 980 32 258 41 421 41 752 0 511 -45 931 -144 1333 -32
128 -144 477 -194 602 -55 136 -153 312 -248 444 l-55 76 -167 7 c-92 3 -183
9 -203 12 l-36 6 -7 -68 c-29 -286 -203 -1028 -320 -1369 -162 -474 -330 -665
-505 -575 -90 45 -116 120 -108 309 6 143 27 252 87 454 91 306 313 862 478
1195 58 117 73 157 62 160 -41 14 -175 92 -247 143 -45 33 -83 59 -85 58 -2 0
-52 -18 -113 -39z"/>
<path d="M18920 14909 c-743 -91 -1310 -543 -1613 -1284 -110 -267 -181 -579
-224 -980 -21 -203 -25 -829 -5 -1040 41 -444 123 -874 220 -1155 145 -418
265 -660 428 -862 l54 -67 143 1 c78 1 165 -2 193 -6 l52 -8 7 74 c36 389 176
1093 281 1414 79 242 195 433 289 475 101 46 203 -3 242 -115 24 -68 23 -275
-1 -401 -68 -354 -302 -1051 -476 -1422 l-48 -102 92 -44 c51 -24 126 -67 167
-94 l75 -51 79 29 c187 68 402 193 553 321 48 41 137 112 197 158 123 93 331
297 478 469 548 641 971 1415 1131 2071 48 199 66 325 73 525 25 722 -278
1327 -861 1717 -271 181 -605 309 -946 363 -123 20 -469 28 -580 14z"/>
<path d="M13569 12885 c-444 -61 -890 -306 -1199 -660 -110 -126 -211 -263
-276 -372 -379 -641 -425 -1318 -130 -1918 261 -530 722 -924 1456 -1242 591
-257 1350 -435 1955 -459 188 -8 600 11 735 33 126 20 296 64 397 103 81 31
83 33 93 73 29 111 44 158 77 235 19 46 33 85 30 88 -3 3 -69 34 -146 69 -272
122 -690 349 -963 522 -411 260 -615 486 -568 628 62 189 302 164 692 -71 286
-173 787 -552 1056 -800 l103 -95 69 73 c37 40 100 98 139 128 l71 55 0 74 c0
174 -66 481 -143 666 -16 39 -44 115 -64 170 -119 339 -427 850 -767 1274
-261 325 -585 652 -856 862 -418 325 -823 509 -1246 564 -138 18 -382 18 -515
0z"/>
<path d="M22605 10450 c-601 -37 -1339 -252 -2000 -582 -216 -109 -339 -180
-540 -314 -359 -238 -626 -490 -800 -751 -54 -82 -54 -64 4 -233 22 -63 42
-136 46 -162 4 -27 10 -48 13 -48 4 0 60 11 125 25 272 58 719 120 1050 146
192 15 567 6 660 -15 101 -24 162 -53 206 -101 110 -120 35 -264 -174 -333
-142 -48 -300 -69 -606 -82 -326 -14 -887 8 -1196 46 l-51 7 -7 -59 c-7 -62
-37 -209 -57 -281 l-12 -41 56 -69 c243 -296 661 -583 1191 -817 551 -243
1198 -413 1817 -478 177 -18 580 -15 730 6 676 92 1188 398 1513 901 242 377
355 883 306 1381 -115 1183 -1030 1930 -2274 1854z"/>
<path d="M15690 7824 c-19 -2 -80 -9 -135 -15 -233 -24 -569 -92 -831 -168
-910 -263 -1701 -707 -2136 -1201 -446 -505 -617 -1102 -493 -1716 159 -788
810 -1491 1558 -1683 788 -204 1580 93 2280 854 512 556 978 1327 1181 1950
47 145 121 428 141 535 22 125 39 384 31 470 l-7 75 -82 52 c-45 28 -113 80
-151 114 l-70 62 -89 -99 c-211 -233 -625 -624 -868 -820 -396 -318 -649 -409
-764 -272 -86 102 -34 246 164 451 183 190 432 384 836 652 195 130 482 306
517 317 6 2 -16 59 -50 125 -33 67 -68 146 -78 177 l-17 55 -81 22 c-192 51
-267 60 -551 64 -148 1 -286 1 -305 -1z"/>
<path d="M18830 7064 c-56 -48 -204 -147 -233 -157 -6 -2 19 -55 55 -118 272
-477 547 -1107 628 -1439 33 -135 34 -307 3 -367 -27 -50 -63 -80 -114 -93
-68 -19 -138 11 -215 92 -67 69 -99 119 -169 258 -98 196 -210 504 -320 885
-56 192 -130 490 -147 593 l-12 74 -31 -7 c-86 -17 -228 -35 -287 -35 l-66 0
-52 -81 c-112 -175 -206 -393 -265 -614 -19 -71 -46 -173 -60 -225 -133 -492
-155 -1341 -54 -2020 81 -542 223 -978 432 -1325 332 -553 814 -883 1417 -971
146 -21 496 -15 635 11 492 91 927 310 1248 630 541 538 694 1332 414 2150
-144 420 -420 902 -766 1339 -175 220 -267 323 -466 522 -274 275 -445 417
-662 550 -74 46 -165 105 -201 133 -70 51 -241 141 -352 184 -67 27 -270 88
-286 86 -5 0 -38 -25 -74 -55z"/>
</g>
</svg>
